<svg width="32" height="32" viewBox="0 0 32 32" fill="none" xmlns="http://www.w3.org/2000/svg">
<g clip-path="url(#clip0_68_7504)">
<path d="M0 16.0002C0 22.552 3.93975 28.1805 9.57738 30.6551C9.53238 29.5379 9.56938 28.1966 9.85588 26.981C10.1635 25.6821 11.9146 18.2625 11.9146 18.2625C11.9146 18.2625 11.4035 17.2409 11.4035 15.731C11.4035 13.3599 12.7778 11.589 14.4893 11.589C15.9446 11.589 16.6478 12.6821 16.6478 13.9911C16.6478 15.4541 15.7146 17.6425 15.2347 19.6694C14.8339 21.3666 16.0857 22.751 17.7601 22.751C20.7916 22.751 22.8334 18.8574 22.8334 14.2441C22.8334 10.7374 20.4715 8.11263 16.1756 8.11263C11.3221 8.11263 8.2985 11.7321 8.2985 15.7751C8.2985 17.1691 8.7095 18.1521 9.35325 18.9134C9.64925 19.263 9.69038 19.4036 9.58325 19.8051C9.5065 20.0995 9.33025 20.8083 9.25725 21.0891C9.15075 21.4944 8.82238 21.6393 8.45613 21.4896C6.22062 20.577 5.1795 18.1289 5.1795 15.3769C5.1795 10.8317 9.01275 5.38175 16.6147 5.38175C22.7235 5.38175 26.7441 9.80225 26.7441 14.5474C26.7441 20.824 23.2546 25.5131 18.1109 25.5131C16.3835 25.5131 14.7586 24.5794 14.202 23.5187C14.202 23.5187 13.2731 27.2052 13.0764 27.9171C12.7371 29.1508 12.0731 30.3837 11.466 31.3447C12.9382 31.78 14.4654 32.001 16.0006 32.0009C24.8361 32.0009 32.0001 24.8372 32.0001 16.0002C32.0001 7.16362 24.8361 0 16.0006 0C7.16425 0 0 7.16362 0 16.0002Z" fill="#CB1F27"/>
</g>
<defs>
<clipPath id="clip0_68_7504">
<rect width="32" height="32" fill="white"/>
</clipPath>
</defs>
</svg>
