<svg width="56" height="56" viewBox="0 0 56 56" fill="none" xmlns="http://www.w3.org/2000/svg">
<g clip-path="url(#clip0_49_1921)">
<path d="M56 28C56 12.5361 43.4639 0 28 0C12.5361 0 0 12.5361 0 28C0 41.9755 10.2393 53.5594 23.625 55.6598V36.0937H16.5156V28H23.625V21.8312C23.625 14.8137 27.8053 10.9375 34.2011 10.9375C37.2645 10.9375 40.4688 11.4844 40.4688 11.4844V18.375H36.9381C33.4598 18.375 32.375 20.5334 32.375 22.7478V28H40.1406L38.8992 36.0937H32.375V55.6598C45.7607 53.5594 56 41.9757 56 28Z" fill="#1877F2"/>
<path d="M38.8992 36.0938L40.1406 28H32.375V22.7478C32.375 20.5332 33.4598 18.375 36.9381 18.375H40.4688V11.4844C40.4688 11.4844 37.2645 10.9375 34.2009 10.9375C27.8053 10.9375 23.625 14.8138 23.625 21.8313V28H16.5156V36.0938H23.625V55.6598C25.0723 55.8866 26.535 56.0003 28 56C29.465 56.0003 30.9277 55.8866 32.375 55.6598V36.0938H38.8992Z" fill="white"/>
</g>
<defs>
<clipPath id="clip0_49_1921">
<rect width="56" height="56" fill="white"/>
</clipPath>
</defs>
</svg>
